<svg xmlns="http://www.w3.org/2000/svg" xmlns:xlink="http://www.w3.org/1999/xlink" viewBox="0 0 391.9 171.47"><defs><style>.cls-1{fill:url(#linear-gradient);}.cls-2{fill:url(#linear-gradient-2);}.cls-3{fill:url(#linear-gradient-3);}.cls-4{fill:url(#linear-gradient-4);}.cls-5{fill:url(#linear-gradient-5);}.cls-6{fill:url(#linear-gradient-6);}.cls-7{fill:url(#linear-gradient-7);}.cls-8{fill:url(#linear-gradient-8);}.cls-9{fill:url(#linear-gradient-9);}.cls-10{fill:url(#linear-gradient-10);}.cls-11{fill:url(#linear-gradient-11);}.cls-12{fill:url(#linear-gradient-12);}.cls-13{fill:url(#linear-gradient-13);}.cls-14{fill:url(#linear-gradient-14);}.cls-15{fill:url(#linear-gradient-15);}.cls-16{fill:url(#linear-gradient-16);}.cls-17{fill:url(#linear-gradient-17);}.cls-18{fill:url(#linear-gradient-18);}</style><linearGradient id="linear-gradient" x1="382.14" y1="163.08" x2="44.66" y2="-1.92" gradientUnits="userSpaceOnUse"><stop offset="0.03" stop-color="#ef3511"/><stop offset="0.26" stop-color="#f7d64b"/><stop offset="0.5" stop-color="#97c735"/><stop offset="0.74" stop-color="#33b3e8"/><stop offset="1" stop-color="#369"/></linearGradient><linearGradient id="linear-gradient-2" x1="381.07" y1="165.24" x2="43.62" y2="0.26" xlink:href="#linear-gradient"/><linearGradient id="linear-gradient-3" x1="372.24" y1="183.35" x2="34.75" y2="18.35" xlink:href="#linear-gradient"/><linearGradient id="linear-gradient-4" x1="356.01" y1="216.46" x2="18.57" y2="51.49" xlink:href="#linear-gradient"/><linearGradient id="linear-gradient-5" x1="335.66" y1="258.18" x2="-1.84" y2="93.18" xlink:href="#linear-gradient"/><linearGradient id="linear-gradient-6" x1="314" y1="302.46" x2="-23.48" y2="137.46" xlink:href="#linear-gradient"/><linearGradient id="linear-gradient-7" x1="404.69" y1="116.96" x2="67.19" y2="-48.03" xlink:href="#linear-gradient"/><linearGradient id="linear-gradient-8" x1="403.77" y1="118.83" x2="66.29" y2="-46.16" xlink:href="#linear-gradient"/><linearGradient id="linear-gradient-9" x1="396.12" y1="134.43" x2="58.68" y2="-30.55" xlink:href="#linear-gradient"/><linearGradient id="linear-gradient-10" x1="382.2" y1="162.99" x2="44.7" y2="-2.01" xlink:href="#linear-gradient"/><linearGradient id="linear-gradient-11" x1="364.62" y1="198.92" x2="27.14" y2="33.93" xlink:href="#linear-gradient"/><linearGradient id="linear-gradient-12" x1="346.01" y1="237.1" x2="8.47" y2="72.08" xlink:href="#linear-gradient"/><linearGradient id="linear-gradient-13" x1="427.22" y1="70.85" x2="89.78" y2="-94.12" xlink:href="#linear-gradient"/><linearGradient id="linear-gradient-14" x1="426.46" y1="72.43" x2="88.98" y2="-92.57" xlink:href="#linear-gradient"/><linearGradient id="linear-gradient-15" x1="420.03" y1="85.51" x2="82.6" y2="-79.46" xlink:href="#linear-gradient"/><linearGradient id="linear-gradient-16" x1="408.33" y1="109.49" x2="70.86" y2="-55.5" xlink:href="#linear-gradient"/><linearGradient id="linear-gradient-17" x1="393.58" y1="139.66" x2="56.1" y2="-25.33" xlink:href="#linear-gradient"/><linearGradient id="linear-gradient-18" x1="377.93" y1="171.7" x2="40.44" y2="6.71" xlink:href="#linear-gradient"/></defs><title>ungp-swish</title><g id="Layer_2" data-name="Layer 2"><g id="Layer_1-2" data-name="Layer 1"><path class="cls-1" d="M376.36,149.51a22,22,0,1,1-22-22A22,22,0,0,1,376.36,149.51Z"/><path class="cls-2" d="M302.44,117.38a19.26,19.26,0,1,1-19.25-19.25A19.25,19.25,0,0,1,302.44,117.38Z"/><path class="cls-3" d="M223.92,102.74a16.56,16.56,0,1,1-16.56-16.55A16.55,16.55,0,0,1,223.92,102.74Z"/><path class="cls-4" d="M142.9,105.51a13.85,13.85,0,1,1-13.84-13.85A13.84,13.84,0,0,1,142.9,105.51Z"/><path class="cls-5" d="M73.51,124.56a11.15,11.15,0,1,1-11.15-11.14A11.15,11.15,0,0,1,73.51,124.56Z"/><path class="cls-6" d="M16.89,153.07a8.45,8.45,0,1,1-8.44-8.44A8.44,8.44,0,0,1,16.89,153.07Z"/><path class="cls-7" d="M384.13,97.67a18.93,18.93,0,1,1-18.92-18.93A18.92,18.92,0,0,1,384.13,97.67Z"/><path class="cls-8" d="M320.43,70a16.59,16.59,0,1,1-16.59-16.59A16.6,16.6,0,0,1,320.43,70Z"/><path class="cls-9" d="M252.76,57.36A14.27,14.27,0,1,1,238.49,43.1,14.27,14.27,0,0,1,252.76,57.36Z"/><path class="cls-10" d="M183,59.75A11.94,11.94,0,1,1,171,47.81,11.93,11.93,0,0,1,183,59.75Z"/><path class="cls-11" d="M123.14,76.17a9.61,9.61,0,1,1-9.6-9.61A9.6,9.6,0,0,1,123.14,76.17Z"/><path class="cls-12" d="M74.36,100.73a7.28,7.28,0,1,1-7.29-7.27A7.28,7.28,0,0,1,74.36,100.73Z"/><path class="cls-13" d="M391.9,45.82A15.89,15.89,0,1,1,376,29.93,15.89,15.89,0,0,1,391.9,45.82Z"/><path class="cls-14" d="M338.43,22.57A13.94,13.94,0,1,1,324.49,8.64,13.94,13.94,0,0,1,338.43,22.57Z"/><path class="cls-15" d="M281.6,12a12,12,0,1,1-12-12A12,12,0,0,1,281.6,12Z"/><path class="cls-16" d="M223,14A10,10,0,1,1,213,4,10,10,0,0,1,223,14Z"/><circle class="cls-17" cx="164.71" cy="27.77" r="8.07"/><path class="cls-18" d="M131.82,48.39a6.12,6.12,0,1,1-6.12-6.11A6.11,6.11,0,0,1,131.82,48.39Z"/></g></g></svg>